<?xml version="1.0" encoding="UTF-8"?>
<svg id="_图层_2" data-name="图层 2" xmlns="http://www.w3.org/2000/svg" xmlns:xlink="http://www.w3.org/1999/xlink" viewBox="0 0 255 255">
  <defs>
    <style>
      .cls-1 {
        fill: url(#_未命名的渐变_5);
      }

      .cls-1, .cls-2, .cls-3, .cls-4 {
        stroke-width: 0px;
      }

      .cls-5 {
        fill: none;
        stroke: #fff;
        stroke-linecap: round;
        stroke-miterlimit: 10;
        stroke-width: 8px;
      }

      .cls-2 {
        fill: #fff;
      }

      .cls-3 {
        fill: url(#_未命名的渐变_4);
      }

      .cls-4 {
        fill: url(#_未命名的渐变_4-2);
      }
    </style>
    <linearGradient id="_未命名的渐变_5" data-name="未命名的渐变 5" x1="0" y1="127.5" x2="255" y2="127.5" gradientUnits="userSpaceOnUse">
      <stop offset="0" stop-color="#3394fd"/>
      <stop offset="1" stop-color="#9498f9"/>
    </linearGradient>
    <linearGradient id="_未命名的渐变_4" data-name="未命名的渐变 4" x1="79.62" y1="63.71" x2="112" y2="63.71" gradientUnits="userSpaceOnUse">
      <stop offset="0" stop-color="#3394fd"/>
      <stop offset=".21" stop-color="#4194fc"/>
      <stop offset=".61" stop-color="#6896fa"/>
      <stop offset="1" stop-color="#9498f9"/>
    </linearGradient>
    <linearGradient id="_未命名的渐变_4-2" data-name="未命名的渐变 4" x1="31.52" y1="191.21" x2="63.9" y2="191.21" xlink:href="#_未命名的渐变_4"/>
  </defs>
  <rect class="cls-1" width="255" height="255" rx="48.26" ry="48.26"/>
  <line class="cls-5" x1="16.38" y1="63.71" x2="239.62" y2="63.71"/>
  <line class="cls-5" x1="16.38" y1="191.21" x2="239.62" y2="191.21"/>
  <line class="cls-5" x1="29.97" y1="238.48" x2="113.52" y2="15.62"/>
  <g>
    <circle class="cls-3" cx="95.81" cy="63.71" r="16.19"/>
    <path class="cls-2" d="m95.81,51.52c6.72,0,12.19,5.47,12.19,12.19s-5.47,12.19-12.19,12.19-12.19-5.47-12.19-12.19,5.47-12.19,12.19-12.19m0-8c-11.15,0-20.19,9.04-20.19,20.19s9.04,20.19,20.19,20.19,20.19-9.04,20.19-20.19-9.04-20.19-20.19-20.19h0Z"/>
  </g>
  <g>
    <circle class="cls-4" cx="47.71" cy="191.21" r="16.19"/>
    <path class="cls-2" d="m47.71,179.02c6.72,0,12.19,5.47,12.19,12.19s-5.47,12.19-12.19,12.19-12.19-5.47-12.19-12.19,5.47-12.19,12.19-12.19m0-8c-11.15,0-20.19,9.04-20.19,20.19s9.04,20.19,20.19,20.19,20.19-9.04,20.19-20.19-9.04-20.19-20.19-20.19h0Z"/>
  </g>
</svg>